<svg width="32" height="32" viewBox="0 0 32 32" fill="none" xmlns="http://www.w3.org/2000/svg">
<rect width="32" height="32" fill="#2C6C94"/>
<path d="M9.51054 9H12.5003V18.5703C12.5003 19.4727 12.2931 20.2565 11.8786 20.9219C11.4688 21.5872 10.8983 22.0999 10.1672 22.46C9.43603 22.82 8.58613 23 7.61747 23C6.75593 23 5.97356 22.8519 5.27036 22.5557C4.57181 22.2549 4.01763 21.7992 3.60781 21.1885C3.198 20.5732 2.99542 19.8008 3.00008 18.8711H5.85714C5.91993 19.164 6.09697 19.557 6.24134 19.8213C6.39036 20.0811 6.59294 20.2816 6.84907 20.4229C7.10986 20.5596 7.41722 20.6279 7.77116 20.6279C8.14371 20.6279 8.45806 20.5505 8.71419 20.3955C8.97498 20.236 9.17291 20.0036 9.30796 19.6982C9.44301 19.3929 9.51054 19.0169 9.51054 18.5703V9Z" fill="white"/>
<path d="M13.4643 9H17.1946L21.1344 18.4063H21.302L25.2418 9H28.9721V10.8106C28.4241 10.7435 28.1056 10.7955 27.8384 10.8886C27.8058 10.8999 27.774 10.9119 27.7426 10.9243C27.4585 11.035 27.2653 11.2084 27.1628 11.4445C27.0662 11.6637 27.0152 11.9386 27.0096 12.2693C27.0093 12.2893 27.0091 12.3095 27.0091 12.3299V13.9459C27.0091 14.2263 26.9439 14.4937 26.8135 14.7483C26.6832 14.9992 26.441 15.2224 26.0871 15.4179C25.8331 15.5556 25.512 15.736 25.1083 15.8692C24.9493 15.9216 24.7776 15.9667 24.5921 15.999C24.7419 16.0243 24.8827 16.0578 25.0151 16.0968C25.4592 16.2276 25.808 16.4204 26.0802 16.5707L26.0871 16.5745C26.441 16.7664 26.6832 16.9896 26.8135 17.2441C26.9439 17.495 27.0091 17.7625 27.0091 18.0466V19.6625C27.0091 20.0167 27.0604 20.3118 27.1628 20.5479C27.2653 20.7803 27.4585 20.9537 27.7426 21.0681C28.0313 21.1788 28.4505 21.2341 29 21.2341V22.9995C28.2968 22.9995 27.8716 22.9623 27.3654 22.8943C26.9741 22.8418 26.406 22.6748 25.9823 22.4737C25.7068 22.343 25.1137 21.9005 24.8227 21.544C24.5317 21.1875 24.131 20.6612 24.1435 19.9004V18.2638L22.2171 22.9316H20.2193L16.517 13.8535H16.3982V23H13.4643V9Z" fill="white"/>
</svg>
