<svg width="171" height="132" viewBox="0 0 171 132" fill="none" xmlns="http://www.w3.org/2000/svg">
<path d="M6.95455 125.364C5.55303 125.364 4.32955 124.977 3.28409 124.205C2.23864 123.432 1.42803 122.367 0.852273 121.011C0.284091 119.648 0 118.083 0 116.318C0 114.568 0.287879 113.015 0.863636 111.659C1.44697 110.295 2.26136 109.227 3.30682 108.455C4.35227 107.674 5.57197 107.284 6.96591 107.284C7.96591 107.284 8.83333 107.477 9.56818 107.864C10.3106 108.242 10.9318 108.746 11.4318 109.375C11.9394 110.004 12.3258 110.693 12.5909 111.443H12.7273V101.727H14.1023V125H12.7614V121.193H12.5909C12.3106 121.943 11.9205 122.636 11.4205 123.273C10.9205 123.902 10.2992 124.409 9.55682 124.795C8.81439 125.174 7.94697 125.364 6.95455 125.364ZM7.07955 124.08C8.26136 124.08 9.27273 123.742 10.1136 123.068C10.9621 122.386 11.6098 121.462 12.0568 120.295C12.5114 119.121 12.7386 117.792 12.7386 116.307C12.7386 114.822 12.5114 113.5 12.0568 112.341C11.6098 111.174 10.9621 110.258 10.1136 109.591C9.27273 108.917 8.26136 108.58 7.07955 108.58C5.88258 108.58 4.85606 108.92 4 109.602C3.15152 110.277 2.5 111.197 2.04545 112.364C1.59848 113.53 1.375 114.845 1.375 116.307C1.375 117.769 1.59848 119.087 2.04545 120.261C2.5 121.436 3.15152 122.367 4 123.057C4.85606 123.739 5.88258 124.08 7.07955 124.08Z" fill="white"/>
<path d="M25.2277 125.364C23.652 125.364 22.2808 124.973 21.1141 124.193C19.9474 123.413 19.0459 122.345 18.4095 120.989C17.7732 119.633 17.455 118.087 17.455 116.352C17.455 114.61 17.7732 113.057 18.4095 111.693C19.0535 110.33 19.9361 109.254 21.0573 108.466C22.1785 107.678 23.4588 107.284 24.8982 107.284C25.8755 107.284 26.7997 107.481 27.6709 107.875C28.5497 108.261 29.3224 108.822 29.9891 109.557C30.6633 110.292 31.1898 111.178 31.5686 112.216C31.955 113.254 32.1482 114.42 32.1482 115.716V116.58H18.33V115.318H30.7618C30.7618 114.053 30.5042 112.913 29.9891 111.898C29.4739 110.883 28.7732 110.076 27.8868 109.477C27.0005 108.879 26.0042 108.58 24.8982 108.58C23.7391 108.58 22.705 108.905 21.7959 109.557C20.8944 110.201 20.1785 111.072 19.6482 112.17C19.1255 113.269 18.8527 114.496 18.83 115.852V116.42C18.83 117.875 19.0838 119.182 19.5914 120.341C20.1065 121.492 20.8414 122.405 21.7959 123.08C22.7505 123.746 23.8944 124.08 25.2277 124.08C26.1823 124.08 26.9967 123.92 27.6709 123.602C28.3527 123.277 28.9095 122.883 29.3414 122.42C29.7732 121.958 30.0989 121.511 30.3186 121.08L31.58 121.591C31.3148 122.174 30.902 122.758 30.3414 123.341C29.7883 123.917 29.0838 124.398 28.2277 124.784C27.3792 125.17 26.3792 125.364 25.2277 125.364Z" fill="white"/>
<path d="M47.231 107.545L40.9242 125H39.356L33.0492 107.545H34.5378L40.0833 123.216H40.1969L45.7424 107.545H47.231Z" fill="white"/>
<path d="M55.8252 125.364C54.2495 125.364 52.8783 124.973 51.7116 124.193C50.5449 123.413 49.6434 122.345 49.007 120.989C48.3707 119.633 48.0525 118.087 48.0525 116.352C48.0525 114.61 48.3707 113.057 49.007 111.693C49.651 110.33 50.5336 109.254 51.6548 108.466C52.776 107.678 54.0563 107.284 55.4957 107.284C56.473 107.284 57.3972 107.481 58.2684 107.875C59.1472 108.261 59.9199 108.822 60.5866 109.557C61.2608 110.292 61.7873 111.178 62.1661 112.216C62.5525 113.254 62.7457 114.42 62.7457 115.716V116.58H48.9275V115.318H61.3593C61.3593 114.053 61.1017 112.913 60.5866 111.898C60.0714 110.883 59.3707 110.076 58.4843 109.477C57.598 108.879 56.6017 108.58 55.4957 108.58C54.3366 108.58 53.3025 108.905 52.3934 109.557C51.4919 110.201 50.776 111.072 50.2457 112.17C49.723 113.269 49.4502 114.496 49.4275 115.852V116.42C49.4275 117.875 49.6813 119.182 50.1889 120.341C50.704 121.492 51.4389 122.405 52.3934 123.08C53.348 123.746 54.4919 124.08 55.8252 124.08C56.7798 124.08 57.5942 123.92 58.2684 123.602C58.9502 123.277 59.507 122.883 59.9389 122.42C60.3707 121.958 60.6964 121.511 60.9161 121.08L62.1775 121.591C61.9123 122.174 61.4995 122.758 60.9389 123.341C60.3858 123.917 59.6813 124.398 58.8252 124.784C57.9767 125.17 56.9767 125.364 55.8252 125.364Z" fill="white"/>
<path d="M66.9848 101.727V125H65.5984V101.727H66.9848Z" fill="white"/>
<path d="M77.292 125.364C75.8527 125.364 74.5724 124.977 73.4511 124.205C72.3299 123.424 71.4474 122.352 70.8034 120.989C70.1595 119.625 69.8375 118.072 69.8375 116.33C69.8375 114.58 70.1595 113.027 70.8034 111.67C71.4474 110.307 72.3299 109.235 73.4511 108.455C74.5724 107.674 75.8527 107.284 77.292 107.284C78.7314 107.284 80.0117 107.674 81.133 108.455C82.2542 109.235 83.1367 110.307 83.7807 111.67C84.4246 113.034 84.7466 114.587 84.7466 116.33C84.7466 118.072 84.4246 119.625 83.7807 120.989C83.1367 122.352 82.2542 123.424 81.133 124.205C80.0117 124.977 78.7314 125.364 77.292 125.364ZM77.292 124.08C78.5117 124.08 79.5761 123.735 80.4852 123.045C81.4019 122.356 82.1102 121.424 82.6102 120.25C83.1178 119.076 83.3716 117.769 83.3716 116.33C83.3716 114.89 83.1178 113.587 82.6102 112.42C82.1027 111.246 81.3943 110.314 80.4852 109.625C79.5761 108.928 78.5117 108.58 77.292 108.58C76.0723 108.58 75.008 108.928 74.0989 109.625C73.1898 110.314 72.4814 111.246 71.9739 112.42C71.4663 113.587 71.2125 114.89 71.2125 116.33C71.2125 117.769 71.4625 119.076 71.9625 120.25C72.4701 121.424 73.1784 122.356 74.0875 123.045C75.0042 123.735 76.0723 124.08 77.292 124.08Z" fill="white"/>
<path d="M87.6022 131.545V107.545H88.9544V111.443H89.1249C89.3976 110.693 89.7802 110.004 90.2726 109.375C90.7726 108.746 91.39 108.242 92.1249 107.864C92.8673 107.477 93.7385 107.284 94.7385 107.284C96.1476 107.284 97.3749 107.67 98.4203 108.443C99.4658 109.216 100.276 110.284 100.852 111.648C101.428 113.004 101.716 114.561 101.716 116.318C101.716 118.076 101.424 119.636 100.841 121C100.265 122.356 99.4544 123.424 98.409 124.205C97.3711 124.977 96.1552 125.364 94.7613 125.364C93.7688 125.364 92.8976 125.174 92.1476 124.795C91.4052 124.417 90.7802 123.913 90.2726 123.284C89.7726 122.648 89.39 121.951 89.1249 121.193H88.9885V131.545H87.6022ZM88.9658 116.307C88.9658 117.792 89.1931 119.121 89.6476 120.295C90.1022 121.462 90.7537 122.386 91.6022 123.068C92.4507 123.742 93.462 124.08 94.6363 124.08C95.8256 124.08 96.8446 123.739 97.6931 123.057C98.5491 122.367 99.2006 121.436 99.6476 120.261C100.102 119.087 100.329 117.769 100.329 116.307C100.329 114.845 100.106 113.53 99.659 112.364C99.212 111.197 98.5643 110.277 97.7158 109.602C96.8673 108.92 95.8408 108.58 94.6363 108.58C93.4469 108.58 92.4279 108.917 91.5794 109.591C90.7385 110.258 90.0908 111.174 89.6363 112.341C89.1893 113.5 88.9658 114.822 88.9658 116.307Z" fill="white"/>
<path d="M104.588 125V107.545H105.941V110.182H106.077C106.41 109.303 106.986 108.606 107.804 108.091C108.622 107.576 109.607 107.318 110.759 107.318C112.024 107.318 113.043 107.621 113.816 108.227C114.596 108.833 115.157 109.655 115.497 110.693H115.622C115.963 109.67 116.573 108.852 117.452 108.239C118.338 107.625 119.429 107.318 120.725 107.318C122.414 107.318 123.702 107.852 124.588 108.92C125.482 109.981 125.929 111.436 125.929 113.284V125H124.543V113.284C124.543 111.83 124.194 110.686 123.497 109.852C122.801 109.019 121.778 108.602 120.429 108.602C118.99 108.602 117.884 109.053 117.111 109.955C116.338 110.856 115.952 112.004 115.952 113.398V125H114.566V113.193C114.566 111.837 114.225 110.735 113.543 109.886C112.861 109.03 111.838 108.602 110.475 108.602C109.551 108.602 108.751 108.814 108.077 109.239C107.41 109.663 106.891 110.246 106.52 110.989C106.157 111.731 105.975 112.583 105.975 113.545V125H104.588Z" fill="white"/>
<path d="M136.569 125.364C134.993 125.364 133.622 124.973 132.455 124.193C131.289 123.413 130.387 122.345 129.751 120.989C129.114 119.633 128.796 118.087 128.796 116.352C128.796 114.61 129.114 113.057 129.751 111.693C130.395 110.33 131.277 109.254 132.399 108.466C133.52 107.678 134.8 107.284 136.239 107.284C137.217 107.284 138.141 107.481 139.012 107.875C139.891 108.261 140.664 108.822 141.33 109.557C142.005 110.292 142.531 111.178 142.91 112.216C143.296 113.254 143.489 114.42 143.489 115.716V116.58H129.671V115.318H142.103C142.103 114.053 141.845 112.913 141.33 111.898C140.815 110.883 140.114 110.076 139.228 109.477C138.342 108.879 137.345 108.58 136.239 108.58C135.08 108.58 134.046 108.905 133.137 109.557C132.236 110.201 131.52 111.072 130.989 112.17C130.467 113.269 130.194 114.496 130.171 115.852V116.42C130.171 117.875 130.425 119.182 130.933 120.341C131.448 121.492 132.183 122.405 133.137 123.08C134.092 123.746 135.236 124.08 136.569 124.08C137.524 124.08 138.338 123.92 139.012 123.602C139.694 123.277 140.251 122.883 140.683 122.42C141.114 121.958 141.44 121.511 141.66 121.08L142.921 121.591C142.656 122.174 142.243 122.758 141.683 123.341C141.13 123.917 140.425 124.398 139.569 124.784C138.72 125.17 137.72 125.364 136.569 125.364Z" fill="white"/>
<path d="M147.729 113.682V125H146.342V107.545H147.694V110.307H147.831C148.24 109.405 148.895 108.682 149.797 108.136C150.698 107.591 151.77 107.318 153.013 107.318C154.187 107.318 155.217 107.568 156.104 108.068C156.997 108.568 157.694 109.28 158.194 110.205C158.702 111.121 158.956 112.216 158.956 113.489V125H157.569V113.545C157.569 112.061 157.126 110.867 156.24 109.966C155.361 109.057 154.198 108.602 152.751 108.602C151.782 108.602 150.918 108.814 150.16 109.239C149.403 109.663 148.808 110.258 148.376 111.023C147.944 111.78 147.729 112.667 147.729 113.682Z" fill="white"/>
<path d="M168.968 107.545V108.784H161.343V107.545H168.968ZM163.922 103.364H165.297V120.875C165.297 121.587 165.434 122.17 165.706 122.625C165.987 123.072 166.35 123.405 166.797 123.625C167.252 123.837 167.737 123.943 168.252 123.943C168.502 123.943 168.718 123.924 168.899 123.886C169.089 123.848 169.267 123.799 169.434 123.739L169.774 125C169.562 125.076 169.327 125.14 169.07 125.193C168.812 125.254 168.509 125.284 168.161 125.284C167.434 125.284 166.744 125.121 166.093 124.795C165.449 124.47 164.926 123.996 164.524 123.375C164.123 122.754 163.922 122.004 163.922 121.125V103.364Z" fill="white"/>
<path d="M42.6598 0H62.2084V64.2579C62.2084 70.3164 60.8534 75.5794 58.1434 80.0469C55.4638 84.5143 51.7338 87.9567 46.9532 90.374C42.1726 92.7913 36.6156 94 30.2821 94C24.6489 94 19.5334 93.0055 14.9355 91.0166C10.3681 88.9971 6.74463 85.9372 4.06508 81.8369C1.38552 77.706 0.0609727 72.5195 0.0914222 66.2773H18.7722C19.1827 68.2438 20.3403 70.8825 21.2843 72.6572C22.2587 74.4014 23.5832 75.7477 25.2579 76.6963C26.9631 77.6143 28.9728 78.0732 31.2869 78.0732C33.7229 78.0732 35.7782 77.5531 37.4529 76.5127C39.1581 75.4417 40.4522 73.8812 41.3353 71.831C42.2183 69.7809 42.6598 67.2566 42.6598 64.2579V0Z" fill="white"/>
<path d="M68.5114 0H92.9015L118.662 63.1563H119.758L145.518 0H169.908V12.1566C166.325 11.7066 164.243 12.0555 162.496 12.6803C162.283 12.7566 162.075 12.8369 161.87 12.9204C160.012 13.6635 158.748 14.8278 158.079 16.4131C157.447 17.8846 157.113 19.7305 157.077 21.9508C157.075 22.0852 157.074 22.221 157.074 22.3582V33.208C157.074 35.0906 156.647 36.8865 155.795 38.5957C154.942 40.2802 153.359 41.7788 151.045 43.0917C149.384 44.0159 147.285 45.2273 144.645 46.1217C143.606 46.4737 142.483 46.7767 141.27 46.9936C142.249 47.1631 143.17 47.388 144.036 47.6499C146.94 48.5284 149.22 49.8224 151 50.8322L151.045 50.8574C153.359 52.1455 154.942 53.6442 155.795 55.3534C156.647 57.0379 157.074 58.8338 157.074 60.7411V71.5909C157.074 73.969 157.409 75.9506 158.079 77.536C158.748 79.0966 160.012 80.2608 161.87 81.0287C163.757 81.7719 166.498 82.1434 170.091 82.1434V93.9965C165.493 93.9965 162.713 93.7466 159.403 93.2905C156.845 92.9379 153.13 91.8165 150.36 90.4666C148.559 89.589 144.68 86.618 142.778 84.2242C140.875 81.8305 138.255 78.2963 138.337 73.1887V62.1998L125.741 93.541H112.678L88.4711 32.5879H87.6946V94H68.5114V0Z" fill="white"/>
</svg>
