<svg width="339" height="120" viewBox="0 0 339 120" fill="none" xmlns="http://www.w3.org/2000/svg">
<path d="M98.3817 120H0C1.12712 110.288 4.53533 101.167 10.2246 92.6358C15.9676 84.051 26.7021 73.937 42.4281 62.2938C52.0355 55.1576 58.181 49.7384 60.8646 46.0362C63.5483 42.334 64.8901 38.8196 64.8901 35.493C64.8901 31.8981 63.5483 28.8397 60.8646 26.3179C58.2347 23.7425 54.907 22.4547 50.8816 22.4547C46.6951 22.4547 43.2601 23.7693 40.5764 26.3984C37.9465 29.0275 36.1753 33.6687 35.2629 40.3219L2.41526 37.666C3.7034 28.4373 6.065 21.2475 9.50004 16.0966C12.9351 10.892 17.7656 6.92153 23.9916 4.18511C30.2713 1.39504 38.9394 0 49.996 0C61.5356 0 70.4989 1.31455 76.8859 3.94366C83.3266 6.57277 88.3718 10.6237 92.0216 16.0966C95.725 21.5158 97.5767 27.6056 97.5767 34.3662C97.5767 41.556 95.4566 48.4239 91.2165 54.9698C87.03 61.5158 79.3817 68.7056 68.2715 76.5392C61.6697 81.0999 57.2418 84.2924 54.9875 86.1167C52.7869 87.941 50.1838 90.3286 47.1782 93.2797H98.3817V120Z" fill="#2C6C94"/>
<path d="M180.288 97.9477H120.551V70.9859L180.288 0H208.869V72.5151H223.682V97.9477H208.869V120H180.288V97.9477ZM180.288 72.5151V35.4125L148.729 72.5151H180.288Z" fill="#2C6C94"/>
<path d="M248.589 2.01207H281.356V45.4728C285.811 40.8585 290.239 37.5587 294.64 35.5734C299.041 33.5882 304.247 32.5956 310.258 32.5956C319.168 32.5956 326.172 35.3052 331.271 40.7243C336.424 46.1435 339 54.4601 339 65.674V120H306.072V72.998C306.072 67.6325 305.079 63.8498 303.093 61.6499C301.107 59.3964 298.316 58.2696 294.72 58.2696C290.748 58.2696 287.528 59.772 285.059 62.7767C282.59 65.7814 281.356 71.1737 281.356 78.9537V120H248.589V2.01207Z" fill="#FF6B00"/>
</svg>
