<svg width="512" height="512" viewBox="0 0 512 512" fill="none" xmlns="http://www.w3.org/2000/svg">
<path d="M512 256C512 397.385 397.385 512 256 512C114.615 512 0 397.385 0 256C0 114.615 114.615 0 256 0C397.385 0 512 114.615 512 256Z" fill="#141414"/>
<path d="M170.487 160H209.508V284.621C209.508 296.371 206.803 306.578 201.393 315.242C196.045 323.907 188.599 330.583 179.057 335.271C169.514 339.959 158.422 342.303 145.779 342.303C134.535 342.303 124.324 340.374 115.146 336.517C106.029 332.6 98.7963 326.666 93.4476 318.714C88.099 310.703 85.455 300.644 85.5158 288.538H122.805C123.624 292.352 125.935 297.469 127.819 300.911C129.764 304.294 132.408 306.905 135.751 308.744C139.154 310.525 143.166 311.415 147.785 311.415C152.648 311.415 156.75 310.406 160.093 308.388C163.497 306.311 166.08 303.285 167.843 299.309C169.605 295.333 170.487 290.437 170.487 284.621V160Z" fill="white"/>
<path d="M222.089 160H270.774L322.195 282.485H324.382L375.802 160H424.487V183.576C417.335 182.704 413.179 183.38 409.692 184.592C409.267 184.74 408.851 184.896 408.442 185.058C404.734 186.499 402.21 188.757 400.875 191.831C399.614 194.685 398.947 198.265 398.875 202.571C398.871 202.832 398.869 203.095 398.869 203.361V224.403C398.869 228.055 398.017 231.537 396.316 234.852C394.613 238.119 391.453 241.026 386.834 243.572C383.519 245.364 379.329 247.714 374.059 249.448C371.986 250.131 369.744 250.718 367.323 251.139C369.277 251.468 371.115 251.904 372.844 252.412C378.64 254.116 383.192 256.625 386.745 258.584L386.834 258.633C391.453 261.131 394.613 264.037 396.316 267.352C398.017 270.619 398.869 274.102 398.869 277.801V298.843C398.869 303.455 399.538 307.298 400.875 310.373C402.21 313.399 404.734 315.657 408.442 317.147C412.209 318.588 417.68 319.308 424.852 319.308V342.296C415.674 342.296 410.125 341.812 403.518 340.927C398.412 340.243 390.996 338.068 385.467 335.45C381.872 333.748 374.129 327.986 370.333 323.344C366.534 318.702 361.304 311.847 361.468 301.942V280.63L336.325 341.413H310.25L261.931 223.201H260.381V342.303H222.089V160Z" fill="white"/>
</svg>
