<svg width="212" height="115" viewBox="0 0 212 115" fill="none" xmlns="http://www.w3.org/2000/svg">
<path d="M0 99C0 94.5817 3.58172 91 8 91C12.4183 91 16 94.5817 16 99V114.976C16 114.989 15.9893 115 15.976 115H0.0240002C0.0107453 115 0 114.989 0 114.976V99Z" fill="#2C6C94"/>
<path d="M28 75C28 70.5817 31.5817 67 36 67C40.4183 67 44 70.5817 44 75V114.952C44 114.979 43.9785 115 43.952 115H28.048C28.0215 115 28 114.979 28 114.952V75Z" fill="#2C6C94"/>
<path d="M56 27C56 22.5817 59.5817 19 64 19C68.4183 19 72 22.5817 72 27V114.904C72 114.957 71.957 115 71.904 115H56.096C56.043 115 56 114.957 56 114.904V27Z" fill="#FF6B00"/>
<path d="M84 53C84 48.5817 87.5817 45 92 45C96.4183 45 100 48.5817 100 53V114.93C100 114.969 99.9687 115 99.93 115H84.07C84.0313 115 84 114.969 84 114.93V53Z" fill="#2C6C94"/>
<path d="M112 75C112 70.5817 115.582 67 120 67C124.418 67 128 70.5817 128 75V114.952C128 114.979 127.979 115 127.952 115H112.048C112.021 115 112 114.979 112 114.952V75Z" fill="#2C6C94"/>
<path d="M140 59C140 54.5817 143.582 51 148 51C152.418 51 156 54.5817 156 59V114.936C156 114.971 155.971 115 155.936 115H140.064C140.029 115 140 114.971 140 114.936V59Z" fill="#2C6C94"/>
<path d="M168 30C168 25.5817 171.582 22 176 22C180.418 22 184 25.5817 184 30V114.907C184 114.958 183.958 115 183.907 115H168.093C168.042 115 168 114.958 168 114.907V30Z" fill="#FF6B00"/>
<path d="M196 8C196 3.58172 199.582 0 204 0C208.418 0 212 3.58172 212 8V114.885C212 114.949 211.949 115 211.885 115H196.115C196.051 115 196 114.949 196 114.885V8Z" fill="#FF6B00"/>
</svg>
